<svg xmlns="http://www.w3.org/2000/svg" xmlns:xlink="http://www.w3.org/1999/xlink" viewBox="0,0,256,256"><g fill="none" fill-rule="nonzero" stroke="none" stroke-width="none" stroke-linecap="butt" stroke-linejoin="none" stroke-miterlimit="10" stroke-dasharray="" stroke-dashoffset="0" font-family="none" font-weight="none" font-size="none" text-anchor="none" style="mix-blend-mode: normal"><path transform="scale(2.56,2.56)" d="M56.479,36.657c-0.003,0.442 -0.007,0.884 -0.01,1.325c-0.028,3.992 -0.061,7.983 -0.052,11.975c0.001,0.589 -0.017,1.258 -0.041,1.953c0.018,0.242 0.037,0.484 0.055,0.726c0.942,1.832 1.012,4.594 0.57,7.021c0.167,1.651 0.032,3.437 -0.47,5.342c-3.07871,11.69463 -17.83411,22.6805 -30.16176,19.92157c1.41096,0.62679 2.96464,1.06449 4.58676,1.25343c2.37,0.265 4.887,0.015 7.383,-0.687c4.962,-1.441 9.961,-4.61 13.742,-9.036c1.846,-2.228 3.253,-4.881 4.136,-7.809c0.893,-2.927 1.291,-6.099 1.411,-9.375c0.122,-3.281 -0.027,-6.671 -0.196,-10.154c-0.083,-1.741 -0.175,-3.51 -0.228,-5.306c-0.016,-0.448 -0.031,-0.897 -0.033,-1.352l-0.017,-1.529c0.00585,-1.29397 0.01224,-2.59062 0.01838,-3.89073c-0.23369,-0.1242 -0.46481,-0.25009 -0.69338,-0.37827zM15.271,65.006c0.199,-2.732 1.198,-5.574 3.168,-8.293c5.106,-7.044 15.439,-11.843 24.125,-9.675c0.226,0.023 0.451,0.045 0.675,0.076c-0.006,-6.26 0.099,-12.503 0.471,-18.737c0.018,-4.5 -0.019,-8.999 -0.199,-13.495c-2.122,-5.655 6.545,-10.259 9.986,-4.538c-0.936,-1.557 1.532,-0.429 2.68,-0.203c1.447,0.285 2.667,0.619 4.022,1.233c0.92293,0.41832 1.82576,0.88539 2.70887,1.39057c0.93552,0.33743 1.87304,0.71049 2.83213,1.16343c0.747,0.349 1.326,0.765 1.951,1.142c0.621,0.389 1.245,0.78 1.873,1.174c2.425,1.711 4.858,3.57 7.056,5.808c2.196,2.23 4.226,4.744 5.912,7.57c0.852,1.407 1.593,2.903 2.233,4.469c0.629,1.566 1.181,3.209 1.412,5.027l0.004,0.02c0.003,0.005 0.011,0.009 0.016,0.013l0.069,0.056l0.211,0.212c0.138,0.163 0.252,0.355 0.375,0.536c0.119,0.185 0.24,0.37 0.348,0.56l0.238,0.618c0.32,0.828 0.366,1.72 0.292,2.555c-0.179,1.682 -0.969,3.159 -2.105,4.301c-1.13,1.14 -2.711,1.959 -4.434,2.071c-0.428,0.017 -0.861,0.052 -1.278,-0.037c-0.417,-0.072 -0.854,-0.108 -1.233,-0.272c-0.366,-0.134 -0.84,-0.293 -1.109,-0.428l-0.70561,-0.33258c-0.00547,-0.00113 -0.01093,-0.00227 -0.01639,-0.00342c-0.105,-0.022 -0.254,-0.061 -0.316,-0.082l-0.133,-0.049l-0.532,-0.2l-0.952,-0.401l-1.824,-0.825c-1.194,-0.567 -2.394,-1.137 -3.598,-1.709c-1.961,-0.97 -3.909,-1.934 -5.824,-2.881c-0.953,-0.485 -1.897,-0.965 -2.831,-1.44l-0.301,-0.155l-0.001,-0.002l-0.007,-0.006l-0.019,-0.016c-0.004,0.008 -0.007,0.012 -0.011,0.04l0.003,1.149c-0.003,0.436 0.008,0.876 0.02,1.315c0.056,1.764 0.111,3.516 0.166,5.253c0.125,3.496 0.228,6.981 0.039,10.434c-0.189,3.447 -0.677,6.879 -1.744,10.111c-1.052,3.231 -2.728,6.217 -4.875,8.662c-0.56,0.588 -1.098,1.197 -1.667,1.75c-0.585,0.53 -1.16,1.062 -1.772,1.541c-1.196,0.991 -2.461,1.857 -3.742,2.648c-2.583,1.545 -5.283,2.752 -8.047,3.416c-2.755,0.672 -5.553,0.847 -8.174,0.447c-2.623,-0.414 -5.014,-1.391 -7.012,-2.755c-1.12999,-0.77178 -2.11889,-1.68498 -2.93423,-2.68513c-5.69698,-3.86881 -7.05204,-10.89066 -5.48977,-17.54087zM82.232,37.059c0.09168,0.07836 0.17894,0.1587 0.26186,0.24086c-0.06831,-0.24195 -0.14154,-0.48374 -0.21938,-0.7248c-0.00819,0.16266 -0.02245,0.32408 -0.04247,0.48394zM77.413,47.238l0.48574,-0.92133c-0.17754,0.00004 -0.35712,-0.00877 -0.53843,-0.02696c-0.00792,0.31571 0.00979,0.63291 0.05269,0.94828zM79.019,46.257c0.16,0.083 0.264,0.114 0.367,0.149l0.317,0.117c0.208,0.111 0.423,0.097 0.632,0.145c0.21,0.065 0.418,0.024 0.626,0.024c0.825,-0.044 1.65,-0.436 2.298,-1.072c0.651,-0.626 1.1,-1.497 1.18,-2.3c0.031,-0.397 0.028,-0.784 -0.109,-1.109c-0.03,-0.083 -0.057,-0.167 -0.08,-0.253l-0.149,-0.221c-0.051,-0.073 -0.082,-0.157 -0.141,-0.228l-0.119,-0.111l-0.1399,-0.14311c-0.3928,2.2854 -2.29743,4.47118 -4.76963,4.96036z" id="strokeMainSVG" fill-opacity="0.45098" fill="#dddddd" stroke-opacity="0.45098" stroke="#dddddd" stroke-width="5" stroke-linejoin="round"></path><g transform="scale(2.56,2.56)" stroke="none" stroke-width="1" stroke-linejoin="miter"><path d="M82.232,37.059c0.134,-1.07 0.01,-2.21 -0.465,-3.322c-2.859,-6.68 -7.28,-12.445 -12.985,-16.942c-2.647,-2.086 -5.503,-4.025 -8.583,-5.421c-1.355,-0.614 -2.575,-0.948 -4.022,-1.233c-1.148,-0.226 -3.616,-1.354 -2.68,0.203c-3.441,-5.721 -12.108,-1.117 -9.986,4.538c0.18,4.496 0.217,8.995 0.199,13.495c-0.372,6.234 -0.477,12.477 -0.471,18.737c-0.224,-0.031 -0.449,-0.053 -0.675,-0.076c-8.686,-2.168 -19.019,2.631 -24.125,9.675c-1.97,2.719 -2.969,5.561 -3.168,8.293c-1.916,8.156 0.556,16.871 10.044,19.643c12.526,3.66 28.049,-7.62 31.216,-19.65c0.502,-1.905 0.637,-3.691 0.47,-5.342c0.442,-2.427 0.372,-5.189 -0.57,-7.021c-0.018,-0.242 -0.037,-0.484 -0.055,-0.726c0.024,-0.695 0.042,-1.364 0.041,-1.953c-0.009,-3.992 0.024,-7.983 0.052,-11.975c0.003,-0.441 0.007,-0.883 0.01,-1.325c1.464,0.821 3.033,1.548 4.707,2.341c2.743,1.299 5.485,2.598 8.228,3.897c0.685,0.496 1.367,0.995 2.063,1.479c1.042,0.725 2.086,0.999 3.061,0.948c0.288,0.137 0.577,0.273 0.865,0.41c5.863,2.779 11.062,-5.055 6.829,-8.673z" fill="#de333b"></path><path d="M38.708,54.297c-8.364,-1.575 -15.614,3.949 -16.285,12.439c-0.098,1.239 0.586,2.393 1.565,3.131c1.768,2.036 5.96,2.087 7.151,-1.331c0.988,-2.838 4.357,-4.312 6.972,-5.264c1.193,-0.434 1.995,-1.318 2.423,-2.337c1.804,-2.029 1.268,-6.056 -1.826,-6.638z" fill="#eb5d46"></path><path d="M22.901,58.206c0,0 -0.487,0.503 -1.293,1.573c-0.783,1.077 -1.906,2.751 -2.718,5.21c-0.201,0.614 -0.368,1.277 -0.507,1.985c-0.058,0.356 -0.123,0.72 -0.158,1.098c-0.022,0.219 -0.035,0.311 -0.081,0.52c-0.038,0.189 -0.077,0.38 -0.116,0.573c-0.299,1.546 -0.475,3.273 -0.35,5.137c0.126,1.858 0.562,3.863 1.523,5.805c0.936,1.95 2.494,3.759 4.494,5.125c1.998,1.364 4.389,2.341 7.012,2.755c2.621,0.4 5.419,0.225 8.174,-0.447c2.764,-0.664 5.464,-1.871 8.047,-3.416c1.281,-0.791 2.546,-1.657 3.742,-2.648c0.612,-0.479 1.187,-1.011 1.772,-1.541c0.569,-0.553 1.107,-1.162 1.667,-1.75c2.147,-2.445 3.823,-5.431 4.875,-8.662c1.067,-3.232 1.555,-6.664 1.744,-10.111c0.189,-3.453 0.086,-6.938 -0.039,-10.434c-0.055,-1.737 -0.11,-3.489 -0.166,-5.253c-0.012,-0.439 -0.023,-0.879 -0.02,-1.315l-0.003,-1.149c0.004,-0.028 0.007,-0.032 0.011,-0.04l0.019,0.016l0.007,0.006l0.001,0.002l0.301,0.155c0.934,0.475 1.878,0.955 2.831,1.44c1.915,0.947 3.863,1.911 5.824,2.881c1.204,0.572 2.404,1.142 3.598,1.709l1.824,0.825l0.952,0.401l0.532,0.2l0.133,0.049c0.062,0.021 0.211,0.06 0.316,0.082c0.232,0.049 0.471,0.077 0.7,0.084l-0.85,-0.159l0.872,0.411c0.269,0.135 0.743,0.294 1.109,0.428c0.379,0.164 0.816,0.2 1.233,0.272c0.417,0.089 0.85,0.054 1.278,0.037c1.723,-0.112 3.304,-0.931 4.434,-2.071c1.136,-1.142 1.926,-2.619 2.105,-4.301c0.074,-0.835 0.028,-1.727 -0.292,-2.555l-0.238,-0.618c-0.108,-0.19 -0.229,-0.375 -0.348,-0.56c-0.123,-0.181 -0.237,-0.373 -0.375,-0.536l-0.211,-0.212l-0.069,-0.056c-0.005,-0.004 -0.013,-0.008 -0.016,-0.013l-0.004,-0.02c-0.231,-1.818 -0.783,-3.461 -1.412,-5.027c-0.64,-1.566 -1.381,-3.062 -2.233,-4.469c-1.686,-2.826 -3.716,-5.34 -5.912,-7.57c-2.198,-2.238 -4.631,-4.097 -7.056,-5.808c-0.628,-0.394 -1.252,-0.785 -1.873,-1.174c-0.625,-0.377 -1.204,-0.793 -1.951,-1.142c-1.37,-0.647 -2.696,-1.131 -4.035,-1.581c-2.672,-0.88 -5.324,-1.565 -8.014,-1.878c-1.345,-0.146 -2.703,-0.204 -4.093,0.003c-0.693,0.114 -1.402,0.284 -2.087,0.659c-0.675,0.347 -1.347,0.928 -1.694,1.68c-0.365,0.732 -0.47,1.526 -0.414,2.214c0.012,0.355 0.055,0.693 0.134,1.01c0.058,0.329 0.139,0.643 0.246,0.937l0.073,0.225l0.037,0.112l0.014,0.036c0.031,0.068 0.025,0.116 0.032,0.251l0.03,0.854c0.02,0.566 0.04,1.127 0.06,1.682c0.082,2.218 0.16,4.345 0.235,6.373c0.039,1.013 0.076,2.001 0.113,2.964c0.015,0.481 0.046,0.957 0.046,1.423c-0.015,0.465 -0.03,0.924 -0.045,1.377c-0.054,1.828 -0.081,3.548 -0.093,5.153c-0.023,3.21 0.015,5.959 0.061,8.198c0.028,1.113 0.052,2.101 0.074,2.958c0.013,0.408 0.025,0.785 0.036,1.13c0.006,0.178 0.011,0.347 0.016,0.508c-0.079,0.068 -0.277,-0.002 -0.398,0.004c-1.13,-0.095 -1.723,-0.145 -1.723,-0.145c0,0 0.624,0.092 1.813,0.268c0.135,0.003 0.354,0.09 0.45,0.027c0.005,-0.166 0.01,-0.342 0.015,-0.525c0.011,-0.379 0.022,-0.793 0.035,-1.243c0.028,-0.862 0.061,-1.858 0.098,-2.979c0.081,-2.236 0.192,-4.978 0.377,-8.173c0.093,-1.597 0.206,-3.307 0.346,-5.122c0.037,-0.459 0.074,-0.924 0.112,-1.396c0.022,-0.472 0.013,-0.948 0.021,-1.433c0.007,-0.969 0.015,-1.964 0.023,-2.983c0.013,-2.045 0.027,-4.19 0.041,-6.427c0.003,-0.561 0.006,-1.127 0.009,-1.7l0.004,-0.863c-0.005,-0.151 0.025,-0.398 -0.063,-0.601l-0.129,-0.458c-0.273,-1.003 -0.378,-2.097 0.025,-2.765c0.339,-0.676 1.267,-1.065 2.362,-1.186c1.094,-0.124 2.301,-0.044 3.519,0.134c2.444,0.368 4.969,1.102 7.482,2.018c1.25,0.461 2.529,0.978 3.693,1.571c0.53,0.258 1.102,0.684 1.688,1.062c0.58,0.385 1.164,0.773 1.75,1.163c2.252,1.685 4.501,3.49 6.503,5.623c2.001,2.125 3.828,4.489 5.322,7.096c0.756,1.298 1.403,2.667 1.953,4.073c0.557,1.404 0.971,2.871 1.178,4.281c-0.028,0.151 0.14,0.288 0.153,0.414l0.141,0.385c0.102,0.264 0.204,0.528 0.308,0.795l0.261,0.267l0.119,0.111c0.059,0.071 0.09,0.155 0.141,0.228l0.149,0.221c0.023,0.086 0.05,0.17 0.08,0.253c0.137,0.325 0.14,0.712 0.109,1.109c-0.08,0.803 -0.529,1.674 -1.18,2.3c-0.648,0.636 -1.473,1.028 -2.298,1.072c-0.208,0 -0.416,0.041 -0.626,-0.024c-0.209,-0.048 -0.424,-0.034 -0.632,-0.145l-0.317,-0.117c-0.103,-0.035 -0.207,-0.066 -0.367,-0.149l-0.87,-0.415l-0.736,1.396c-0.071,-0.522 -0.073,-1.049 -0.004,-1.566c0.04,-0.039 0.077,-0.013 0.114,-0.014c0.026,0.002 0.094,0.028 0.079,0.023l-0.095,-0.037l-0.38,-0.144l-0.85,-0.362l-1.753,-0.799c-1.176,-0.56 -2.358,-1.123 -3.544,-1.688c-1.948,-0.959 -3.884,-1.913 -5.787,-2.85c-0.947,-0.476 -1.886,-0.948 -2.814,-1.415c-0.826,-0.432 -1.647,-0.861 -2.463,-1.287c-0.918,-0.502 -1.831,-1.001 -2.737,-1.497c-0.008,1.781 -0.017,3.555 -0.025,5.324l0.017,1.529c0.002,0.455 0.017,0.904 0.033,1.352c0.053,1.796 0.145,3.565 0.228,5.306c0.169,3.483 0.318,6.873 0.196,10.154c-0.12,3.276 -0.518,6.448 -1.411,9.375c-0.883,2.928 -2.29,5.581 -4.136,7.809c-3.781,4.426 -8.78,7.595 -13.742,9.036c-2.496,0.702 -5.013,0.952 -7.383,0.687c-2.361,-0.275 -4.577,-1.077 -6.419,-2.222c-1.843,-1.148 -3.307,-2.69 -4.241,-4.424c-0.955,-1.723 -1.458,-3.565 -1.664,-5.316c-0.206,-1.755 -0.126,-3.422 0.085,-4.933c0.028,-0.189 0.056,-0.376 0.083,-0.561c0.031,-0.163 0.059,-0.444 0.061,-0.596c0.014,-0.363 0.058,-0.715 0.094,-1.06c0.097,-0.687 0.222,-1.337 0.384,-1.943c0.654,-2.431 1.662,-4.154 2.374,-5.269c0.734,-1.109 1.188,-1.644 1.188,-1.644z" fill="#000000"></path></g></g><g fill="none" fill-rule="nonzero" stroke="none" stroke-width="none" stroke-linecap="butt" stroke-linejoin="none" stroke-miterlimit="10" stroke-dasharray="" stroke-dashoffset="0" font-family="none" font-weight="none" font-size="none" text-anchor="none" style="mix-blend-mode: normal"><path d="M26.793,189.19h42.35v11.27h-5.88l-0.53,-5.84h-11.3v40.14l5.7,0.98v4.41h-18.3v-4.41l5.7,-0.98v-40.14h-11.34l-0.49,5.84h-5.91zM97.773,240.15l-0.46,-5.6c-1.19333,2.03333 -2.72667,3.59667 -4.6,4.69c-1.88,1.1 -4.04333,1.65 -6.49,1.65c-4.10667,0 -7.31667,-1.32 -9.63,-3.96c-2.30667,-2.63333 -3.46,-6.74 -3.46,-12.32v-16.9l-4.34,-0.98v-4.45h11.23v22.4c0,4.04 0.59667,6.81667 1.79,8.33c1.18667,1.52 3.04,2.28 5.56,2.28c2.45333,0 4.47667,-0.49667 6.07,-1.49c1.6,-0.99333 2.81,-2.4 3.63,-4.22v-21.87l-5.08,-0.98v-4.45h11.97v32.48l4.34,0.98v4.41zM112.743,240.15v-4.41l5.71,-0.98v-27.05l-5.71,-0.98v-4.45h11.87l0.49,5.64c1.26,-2.00667 2.84,-3.56667 4.74,-4.68c1.9,-1.10667 4.06333,-1.66 6.49,-1.66c4.08667,0 7.25,1.19667 9.49,3.59c2.24,2.39333 3.36,6.08667 3.36,11.08v18.51l5.71,0.98v4.41h-18.31v-4.41l5.71,-0.98v-18.37c0,-3.34 -0.66,-5.71 -1.98,-7.11c-1.32,-1.4 -3.33333,-2.1 -6.04,-2.1c-1.98,0 -3.73667,0.48 -5.27,1.44c-1.52667,0.95333 -2.74333,2.26 -3.65,3.92v22.22l5.7,0.98v4.41zM176.833,240.89c-5.27333,0 -9.46667,-1.75667 -12.58,-5.27c-3.11333,-3.51333 -4.67,-8.07 -4.67,-13.67v-1.54c0,-5.38667 1.60333,-9.87333 4.81,-13.46c3.20667,-3.58 7.00333,-5.37 11.39,-5.37c5.08667,0 8.94333,1.54 11.57,4.62c2.62667,3.08 3.94,7.18667 3.94,12.32v4.31h-24.58l-0.1,0.17c0.06667,3.64 0.98667,6.63333 2.76,8.98c1.78,2.34667 4.26667,3.52 7.46,3.52c2.33333,0 4.38,-0.33333 6.14,-1c1.76667,-0.66667 3.29,-1.58333 4.57,-2.75l2.7,4.48c-1.35333,1.30667 -3.14667,2.41 -5.38,3.31c-2.22667,0.9 -4.90333,1.35 -8.03,1.35zM175.783,207.01c-2.30667,0 -4.27667,0.97333 -5.91,2.92c-1.63333,1.94667 -2.63667,4.39 -3.01,7.33l0.07,0.18h17.46v-0.91c0,-2.70667 -0.72333,-4.97 -2.17,-6.79c-1.44667,-1.82 -3.59333,-2.73 -6.44,-2.73zM227.053,214.18h-5.18l-1.12,-4.55c-0.84,-0.79333 -1.89333,-1.43 -3.16,-1.91c-1.27333,-0.47333 -2.71333,-0.71 -4.32,-0.71c-2.45333,0 -4.27667,0.53667 -5.47,1.61c-1.18667,1.07333 -1.78,2.36667 -1.78,3.88c0,1.49333 0.52333,2.67333 1.57,3.54c1.05333,0.86 3.19,1.63 6.41,2.31c4.78667,1.02667 8.34667,2.42 10.68,4.18c2.33333,1.76 3.5,4.12333 3.5,7.09c0,3.36 -1.36,6.07667 -4.08,8.15c-2.72,2.08 -6.27333,3.12 -10.66,3.12c-2.86667,0 -5.44333,-0.33333 -7.73,-1c-2.29333,-0.66667 -4.33667,-1.63 -6.13,-2.89l-0.03,-8.64h5.18l1.29,5.07c0.79333,0.72667 1.87333,1.25333 3.24,1.58c1.36,0.32667 2.75333,0.49 4.18,0.49c2.45333,0 4.37333,-0.49667 5.76,-1.49c1.38667,-0.99333 2.08,-2.29333 2.08,-3.9c0,-1.52 -0.57667,-2.77 -1.73,-3.75c-1.16,-0.98 -3.34667,-1.83 -6.56,-2.55c-4.6,-1.00667 -8.06667,-2.37333 -10.4,-4.1c-2.33333,-1.72667 -3.5,-4.06 -3.5,-7c0,-3.08 1.31333,-5.70333 3.94,-7.87c2.62,-2.17333 6.03333,-3.26 10.24,-3.26c2.86667,0 5.44333,0.37333 7.73,1.12c2.28667,0.74667 4.19,1.78667 5.71,3.12z" id="strokeMainSVG" fill-opacity="0.45098" fill="#dddddd" stroke-opacity="0.45098" stroke="#dddddd" stroke-width="7.68" stroke-linejoin="round"></path><g fill="#eb5d46" stroke="none" stroke-width="1" stroke-linejoin="miter"><path d="M26.793,189.19h42.35v11.27h-5.88l-0.53,-5.84h-11.3v40.14l5.7,0.98v4.41h-18.3v-4.41l5.7,-0.98v-40.14h-11.34l-0.49,5.84h-5.91zM97.773,240.15l-0.46,-5.6c-1.19333,2.03333 -2.72667,3.59667 -4.6,4.69c-1.88,1.1 -4.04333,1.65 -6.49,1.65v0c-4.10667,0 -7.31667,-1.32 -9.63,-3.96c-2.30667,-2.63333 -3.46,-6.74 -3.46,-12.32v0v-16.9l-4.34,-0.98v-4.45h4.34h6.89v22.4c0,4.04 0.59667,6.81667 1.79,8.33c1.18667,1.52 3.04,2.28 5.56,2.28v0c2.45333,0 4.47667,-0.49667 6.07,-1.49c1.6,-0.99333 2.81,-2.4 3.63,-4.22v0v-21.87l-5.08,-0.98v-4.45h5.08h6.89v32.48l4.34,0.98v4.41zM112.743,240.15v-4.41l5.71,-0.98v-27.05l-5.71,-0.98v-4.45h11.87l0.49,5.64c1.26,-2.00667 2.84,-3.56667 4.74,-4.68c1.9,-1.10667 4.06333,-1.66 6.49,-1.66v0c4.08667,0 7.25,1.19667 9.49,3.59c2.24,2.39333 3.36,6.08667 3.36,11.08v0v18.51l5.71,0.98v4.41h-18.31v-4.41l5.71,-0.98v-18.37c0,-3.34 -0.66,-5.71 -1.98,-7.11c-1.32,-1.4 -3.33333,-2.1 -6.04,-2.1v0c-1.98,0 -3.73667,0.48 -5.27,1.44c-1.52667,0.95333 -2.74333,2.26 -3.65,3.92v0v22.22l5.7,0.98v4.41zM176.833,240.89v0c-5.27333,0 -9.46667,-1.75667 -12.58,-5.27c-3.11333,-3.51333 -4.67,-8.07 -4.67,-13.67v0v-1.54c0,-5.38667 1.60333,-9.87333 4.81,-13.46c3.20667,-3.58 7.00333,-5.37 11.39,-5.37v0c5.08667,0 8.94333,1.54 11.57,4.62c2.62667,3.08 3.94,7.18667 3.94,12.32v0v4.31h-24.58l-0.1,0.17c0.06667,3.64 0.98667,6.63333 2.76,8.98c1.78,2.34667 4.26667,3.52 7.46,3.52v0c2.33333,0 4.38,-0.33333 6.14,-1c1.76667,-0.66667 3.29,-1.58333 4.57,-2.75v0l2.7,4.48c-1.35333,1.30667 -3.14667,2.41 -5.38,3.31c-2.22667,0.9 -4.90333,1.35 -8.03,1.35zM175.783,207.01v0c-2.30667,0 -4.27667,0.97333 -5.91,2.92c-1.63333,1.94667 -2.63667,4.39 -3.01,7.33v0l0.07,0.18h17.46v-0.91c0,-2.70667 -0.72333,-4.97 -2.17,-6.79c-1.44667,-1.82 -3.59333,-2.73 -6.44,-2.73zM226.713,205.82l0.34,8.36h-5.18l-1.12,-4.55c-0.84,-0.79333 -1.89333,-1.43 -3.16,-1.91c-1.27333,-0.47333 -2.71333,-0.71 -4.32,-0.71v0c-2.45333,0 -4.27667,0.53667 -5.47,1.61c-1.18667,1.07333 -1.78,2.36667 -1.78,3.88v0c0,1.49333 0.52333,2.67333 1.57,3.54c1.05333,0.86 3.19,1.63 6.41,2.31v0c4.78667,1.02667 8.34667,2.42 10.68,4.18c2.33333,1.76 3.5,4.12333 3.5,7.09v0c0,3.36 -1.36,6.07667 -4.08,8.15c-2.72,2.08 -6.27333,3.12 -10.66,3.12v0c-2.86667,0 -5.44333,-0.33333 -7.73,-1c-2.29333,-0.66667 -4.33667,-1.63 -6.13,-2.89v0l-0.03,-8.64h5.18l1.29,5.07c0.79333,0.72667 1.87333,1.25333 3.24,1.58c1.36,0.32667 2.75333,0.49 4.18,0.49v0c2.45333,0 4.37333,-0.49667 5.76,-1.49c1.38667,-0.99333 2.08,-2.29333 2.08,-3.9v0c0,-1.52 -0.57667,-2.77 -1.73,-3.75c-1.16,-0.98 -3.34667,-1.83 -6.56,-2.55v0c-4.6,-1.00667 -8.06667,-2.37333 -10.4,-4.1c-2.33333,-1.72667 -3.5,-4.06 -3.5,-7v0c0,-3.08 1.31333,-5.70333 3.94,-7.87c2.62,-2.17333 6.03333,-3.26 10.24,-3.26v0c2.86667,0 5.44333,0.37333 7.73,1.12c2.28667,0.74667 4.19,1.78667 5.71,3.12z"></path></g></g></svg>